<?xml version="1.0" standalone="no"?>
<!DOCTYPE svg PUBLIC "-//W3C//DTD SVG 20010904//EN"
 "http://www.w3.org/TR/2001/REC-SVG-20010904/DTD/svg10.dtd">
<svg version="1.0" xmlns="http://www.w3.org/2000/svg"
 width="512.000000pt" height="512.000000pt" viewBox="0 0 512.000000 512.000000"
 preserveAspectRatio="xMidYMid meet">
<metadata>
Created by potrace 1.11, written by Peter Selinger 2001-2013
</metadata>
<g transform="translate(0.000000,512.000000) scale(0.100000,-0.100000)"
fill="#000000" stroke="none">
<path d="M0 3688 c0 -788 4 -1428 8 -1422 12 18 185 128 222 141 81 29 188 27
176 -3 -3 -7 -1 -16 5 -19 5 -4 7 -10 4 -15 -3 -5 0 -18 7 -30 10 -16 10 -24
0 -40 -10 -16 -10 -20 0 -20 25 -1 52 -29 41 -42 -13 -15 -2 -48 21 -67 22
-18 20 -30 -6 -40 l-23 -8 25 -8 c14 -4 28 -12 31 -18 4 -5 18 -7 31 -4 25 7
55 68 43 88 -4 5 0 18 8 27 22 26 30 53 28 93 -2 25 3 38 13 42 18 7 23 87 6
87 -18 0 -10 19 11 25 11 4 30 27 42 51 11 24 29 47 40 50 11 3 16 12 13 20
-10 26 38 35 96 18 29 -9 60 -22 68 -29 8 -7 49 -15 90 -18 47 -3 90 -13 115
-26 53 -27 148 -62 154 -56 2 3 -1 5 -7 5 -7 0 -12 5 -12 10 0 6 14 10 30 10
37 0 49 23 26 49 -9 10 -16 27 -16 39 0 19 6 22 40 22 39 0 40 1 34 26 -4 16
-2 29 6 34 17 10 130 -20 130 -35 0 -7 7 -16 16 -19 9 -3 14 -12 11 -20 -3 -8
0 -37 8 -65 7 -28 10 -51 7 -51 -3 0 3 -6 14 -14 16 -13 17 -18 6 -36 -11 -18
-11 -27 0 -51 7 -16 17 -29 21 -29 5 0 6 -13 2 -30 -5 -23 -3 -30 8 -30 8 0
17 -9 20 -20 3 -11 12 -20 21 -20 19 0 21 -11 4 -29 -11 -11 -8 -12 14 -7 22
5 26 3 22 -9 -7 -17 25 -21 42 -6 5 5 26 16 46 24 37 16 38 15 36 -6 0 -12 2
-29 6 -38 4 -10 2 -20 -4 -24 -8 -5 -8 -10 0 -20 8 -10 4 -20 -17 -41 -26 -26
-26 -28 -8 -34 17 -6 15 -9 -15 -17 -29 -8 -35 -14 -32 -34 1 -13 3 -32 3 -42
0 -20 43 -52 59 -42 6 3 10 -3 10 -14 0 -14 6 -21 20 -21 11 0 20 -5 20 -11 0
-17 72 -42 129 -45 30 -1 57 -7 61 -15 7 -10 24 -7 82 11 40 13 95 24 122 25
46 2 56 7 129 71 43 38 89 74 103 80 13 5 21 13 18 17 -4 4 1 9 10 13 9 3 16
12 16 18 0 7 11 19 25 26 14 7 25 17 25 22 0 4 5 8 10 8 6 0 22 11 36 25 14
14 33 25 42 25 9 0 37 12 61 25 24 14 51 24 60 23 11 -2 18 7 22 32 4 22 7 26
8 13 1 -28 21 -31 21 -3 0 17 3 18 26 10 l25 -10 0 63 c-1 122 4 242 11 252 3
6 9 28 13 50 3 22 8 51 11 64 4 18 1 22 -10 18 -21 -8 -33 11 -40 68 -9 64
-15 85 -27 85 -5 0 -9 18 -9 40 0 24 -6 42 -15 47 -8 5 -22 38 -31 73 -8 36
-19 74 -24 85 -8 17 -40 139 -40 151 0 2 -9 4 -19 4 -22 0 -35 28 -25 54 3 9
1 16 -5 16 -7 0 -7 8 -1 26 13 33 13 94 0 94 -11 0 -13 -12 -10 -47 1 -13 -3
-23 -9 -23 -12 0 -13 7 -12 126 0 79 -1 81 -23 79 -22 -3 -24 2 -29 62 -6 61
-32 121 -63 148 -6 6 -15 23 -18 39 -8 33 -32 55 -58 56 -20 0 -25 39 -8 56 6
6 12 36 14 67 1 31 10 67 20 81 16 25 18 26 46 11 35 -18 40 -19 40 -2 2 45
78 70 105 34 7 -10 16 -14 19 -9 14 23 53 18 80 -9 30 -30 65 -29 73 1 4 15 9
13 35 -14 17 -17 36 -30 44 -28 8 2 14 -1 14 -6 0 -5 9 -12 20 -15 17 -4 19
-11 14 -31 -8 -34 9 -34 24 0 7 14 16 23 21 20 9 -6 26 -128 22 -159 -2 -15 2
-17 17 -13 11 4 23 2 27 -4 5 -8 11 -8 21 1 11 9 14 8 14 -5 0 -10 -5 -27 -12
-39 -6 -12 -13 -31 -14 -42 -2 -11 -6 -30 -10 -42 -7 -24 10 -33 20 -10 5 10
7 10 12 0 7 -16 44 -17 44 -1 0 9 3 9 12 0 12 -12 17 -70 20 -219 1 -45 5 -80
10 -77 5 3 16 24 25 46 9 21 19 36 24 31 10 -10 -9 -90 -28 -118 -7 -11 -13
-25 -13 -32 0 -18 32 -53 43 -46 5 3 4 -4 -2 -15 -6 -11 -11 -31 -11 -43 l0
-23 21 23 c12 12 23 20 25 18 5 -5 -16 -55 -38 -87 -9 -14 -23 -62 -31 -108
-8 -45 -17 -85 -20 -88 -11 -11 -27 8 -27 32 0 37 -17 20 -46 -44 -21 -48 -25
-67 -20 -119 4 -51 1 -65 -15 -84 -10 -12 -19 -27 -19 -33 0 -6 -5 -48 -10
-92 -12 -95 0 -236 24 -284 9 -18 16 -39 16 -47 0 -7 14 -27 30 -45 17 -17 30
-37 30 -43 0 -7 7 -15 15 -19 8 -3 15 -13 15 -22 0 -11 5 -14 16 -10 9 3 20 6
25 6 5 0 18 14 28 31 29 48 63 61 119 47 97 -24 174 -80 202 -148 9 -22 22
-33 42 -37 15 -3 31 -10 34 -14 7 -12 44 -11 45 1 1 6 1 22 2 38 0 15 7 33 14
40 7 7 13 31 13 53 0 22 9 58 21 81 13 25 18 49 15 64 -5 17 -2 26 9 30 10 4
15 19 15 45 0 21 5 39 10 39 6 0 16 11 22 25 9 19 8 31 -2 49 -11 21 -10 31 4
66 21 54 20 76 -5 94 -21 14 -21 16 -5 41 17 26 17 27 -6 47 -22 19 -24 24
-27 61 0 9 -8 17 -16 17 -8 0 -15 9 -15 20 0 24 67 57 83 41 7 -7 5 -12 -5
-16 -13 -5 -13 -10 1 -40 9 -20 24 -34 34 -35 11 0 17 -8 17 -24 0 -25 20 -39
44 -30 20 8 46 49 46 74 0 30 55 29 57 -2 1 -12 12 -30 24 -39 14 -11 18 -18
10 -23 -14 -9 -14 -59 1 -74 8 -8 8 -15 -1 -26 -7 -8 -8 -17 -3 -20 6 -3 4
-22 -4 -47 -8 -22 -12 -44 -9 -48 2 -5 8 -48 11 -96 3 -48 9 -99 13 -113 4
-14 3 -55 -1 -90 -5 -43 -4 -70 3 -78 6 -7 7 -19 3 -26 -10 -15 -14 -33 -19
-71 -2 -16 -10 -36 -19 -46 -9 -10 -16 -26 -16 -37 0 -10 -9 -32 -20 -49 -12
-18 -17 -38 -14 -52 4 -14 2 -23 -5 -23 -6 0 -11 -6 -11 -14 0 -8 -11 -23 -25
-34 -14 -11 -25 -25 -25 -31 0 -7 -6 -14 -14 -17 -8 -3 -19 -18 -26 -34 -6
-15 -29 -42 -51 -60 -47 -40 -60 -87 -34 -126 13 -20 14 -28 5 -34 -14 -9 3
-50 21 -50 6 0 7 -5 4 -11 -8 -12 13 -97 28 -117 7 -8 21 -11 41 -6 30 6 30 5
11 -10 -19 -15 -19 -15 15 -16 19 -1 44 -5 55 -10 17 -7 15 -9 -12 -9 -41 -1
-83 -17 -83 -32 0 -8 15 -10 48 -6 39 5 44 4 28 -6 -43 -27 -71 -56 -56 -58
28 -2 175 3 179 6 2 2 0 16 -3 30 -5 18 -15 27 -36 32 -46 9 -48 25 -4 21 22
-2 39 -8 39 -14 0 -13 30 -44 44 -44 6 0 8 -6 5 -14 -4 -11 9 -17 49 -26 64
-13 212 -10 211 5 -1 16 -125 74 -159 75 -16 1 -39 5 -49 9 -19 7 -18 8 4 14
28 7 21 18 -23 33 -43 15 -48 34 -5 25 36 -9 196 -77 214 -92 14 -12 131 -15
162 -5 13 4 21 13 19 20 -6 14 20 46 52 64 20 12 26 10 56 -12 33 -26 35 -26
222 -26 103 0 205 3 226 6 l37 7 -1 1151 c0 961 -3 1146 -14 1121 -23 -52 -98
-60 -143 -15 -25 25 -35 28 -65 23 -28 -4 -44 1 -80 26 -25 17 -48 31 -52 31
-4 0 -13 7 -21 15 -9 8 -24 15 -34 15 -10 0 -33 18 -50 40 -17 22 -37 40 -42
40 -6 0 -26 12 -45 26 -25 19 -41 24 -62 19 -28 -6 -54 9 -63 37 -4 10 -10 10
-32 0 -35 -16 -66 -7 -66 19 0 15 -6 19 -27 17 -51 -3 -101 22 -145 72 -42 48
-44 49 -81 41 -79 -19 -104 -71 -86 -182 9 -55 7 -66 -16 -116 -14 -30 -25
-61 -25 -68 0 -7 -18 -31 -40 -54 -54 -56 -54 -88 2 -124 16 -10 28 -25 28
-35 0 -10 7 -28 16 -41 23 -33 12 -100 -26 -152 -16 -23 -30 -50 -30 -61 0
-52 -61 -23 -95 44 -11 24 -33 62 -48 85 -15 23 -24 49 -21 58 4 8 -1 26 -10
40 -9 13 -16 37 -16 53 0 16 -7 35 -15 42 -8 7 -15 18 -15 25 0 6 -11 17 -24
23 -17 8 -27 22 -32 47 -4 22 -20 51 -40 71 -19 18 -34 37 -34 42 0 5 -11 31
-25 58 -14 27 -25 56 -25 65 0 22 -48 110 -67 124 -12 9 -14 22 -9 57 7 44 32
78 66 90 9 3 22 18 30 34 8 16 21 36 29 44 8 8 34 56 58 105 24 50 52 101 63
115 13 17 26 58 36 120 8 52 20 106 25 119 17 40 46 501 32 501 -5 0 -19 -13
-30 -29 -21 -28 -35 -87 -48 -206 -12 -108 -51 -251 -87 -322 -14 -29 -28 -30
-28 -2 0 29 -22 19 -39 -17 -7 -16 -23 -39 -34 -51 -15 -16 -21 -38 -22 -77
-3 -65 -30 -110 -78 -125 -68 -21 -99 -24 -109 -10 -7 10 -8 9 -4 -6 5 -17 1
-20 -24 -21 -27 -1 -31 3 -40 37 -9 31 -7 54 9 115 21 83 36 108 47 81 11 -30
33 -18 44 26 6 23 16 57 21 74 19 60 -7 66 -41 10 -16 -26 -20 -28 -26 -13 -4
9 -2 27 3 39 30 68 46 131 50 202 3 44 15 127 29 183 13 57 24 108 24 113 0 5
-684 9 -1700 9 l-1700 0 0 -1432z m710 1307 c6 -16 15 -23 24 -19 10 4 20 -4
28 -22 7 -16 21 -37 31 -46 9 -10 18 -31 19 -48 1 -16 2 -38 2 -47 1 -10 7
-22 14 -28 18 -15 25 -101 13 -173 -10 -65 -1 -102 25 -102 18 0 25 -27 18
-69 -4 -25 -2 -42 8 -52 7 -8 26 -39 42 -71 16 -31 37 -59 47 -61 11 -3 24
-19 30 -35 6 -17 21 -37 33 -46 13 -8 29 -28 36 -45 7 -17 18 -31 26 -31 7 0
19 -8 26 -18 7 -10 28 -28 46 -41 17 -12 32 -31 32 -42 0 -26 -33 -89 -59
-113 -12 -11 -21 -24 -21 -31 0 -6 -15 -29 -34 -50 -34 -38 -37 -47 -50 -172
-3 -23 -12 -53 -21 -66 -24 -37 -36 -85 -22 -90 24 -8 -2 -18 -64 -23 -72 -7
-112 5 -130 37 -11 21 -10 22 30 16 l40 -5 -17 23 c-9 13 -19 22 -20 20 -2 -2
-16 8 -31 21 -15 13 -36 30 -46 38 -11 8 -15 18 -10 25 5 9 10 10 18 2 18 -18
30 -13 24 10 -4 14 0 22 15 28 19 7 19 8 -8 32 -27 22 -28 25 -13 40 11 11 21
14 30 8 42 -27 51 4 14 47 -14 16 -25 36 -25 45 0 9 -7 22 -15 29 -9 7 -13 21
-10 31 9 28 -4 59 -24 59 -24 0 -65 56 -46 63 16 7 9 47 -9 47 -6 0 -17 13
-23 29 -8 22 -16 28 -29 25 -13 -3 -28 8 -48 36 -17 22 -37 40 -46 40 -9 0
-25 9 -35 20 -10 11 -23 20 -30 20 -7 0 -24 11 -38 24 -14 13 -29 21 -33 17
-4 -3 -4 -1 0 6 3 6 -5 24 -19 39 -51 55 -24 -8 39 -90 26 -34 27 -38 9 -32
-16 5 -26 1 -37 -16 -20 -28 -20 -30 3 -54 22 -24 34 -97 15 -90 -21 8 -23 -5
-4 -24 15 -15 55 -125 51 -140 -1 -3 -13 -4 -26 -2 -35 5 -31 -9 16 -51 38
-34 39 -38 24 -53 -9 -10 -14 -25 -12 -35 4 -15 2 -16 -13 -7 -10 6 -26 8 -36
3 -15 -6 -16 -8 -4 -12 30 -11 60 -46 54 -65 -3 -11 1 -20 10 -24 11 -4 14
-13 10 -30 -4 -15 -1 -31 9 -42 25 -29 40 -65 45 -107 2 -22 9 -43 16 -47 8
-6 7 -8 -1 -8 -7 0 -13 -10 -13 -22 1 -26 22 -58 38 -58 6 0 9 -7 6 -15 -4 -8
-1 -15 4 -15 6 0 17 -14 26 -30 17 -34 11 -100 -9 -100 -7 0 -24 -15 -39 -34
-14 -19 -33 -41 -41 -50 -9 -9 -14 -20 -11 -25 4 -5 -8 -13 -26 -16 -18 -4
-41 -16 -51 -26 -14 -15 -22 -16 -44 -8 -14 5 -43 9 -63 7 -71 -4 -128 60
-115 131 11 63 37 120 57 127 22 7 38 42 38 83 0 22 -9 35 -40 56 -22 15 -42
37 -45 49 -13 61 -35 347 -34 451 0 66 0 175 -1 243 -2 129 9 201 41 267 10
22 19 58 19 79 0 37 1 38 18 23 26 -24 29 -22 35 26 9 72 25 131 36 135 6 2
11 10 11 17 0 7 11 26 24 42 14 16 28 41 31 55 4 15 13 29 20 32 8 3 23 23 35
46 27 53 51 80 70 80 8 0 28 9 45 20 26 17 31 18 46 4 16 -14 18 -14 29 5 6
12 8 21 5 21 -4 0 -3 5 0 10 11 17 25 11 35 -15z m3370 -1345 c0 -5 -5 -10
-11 -10 -5 0 -7 5 -4 10 3 6 8 10 11 10 2 0 4 -4 4 -10z m-557 -361 c44 2 47
0 47 -22 0 -19 7 -26 28 -30 43 -9 57 -43 36 -92 -10 -24 -12 -41 -6 -43 7 -2
8 -38 5 -98 -3 -64 -1 -94 6 -94 6 0 11 -9 11 -20 0 -12 7 -20 16 -20 11 0 15
-6 11 -20 -3 -11 -1 -20 4 -20 5 0 9 -9 9 -19 0 -11 5 -23 10 -26 14 -9 12
-35 -2 -33 -7 2 -13 -4 -13 -12 0 -8 6 -14 13 -12 17 3 15 -25 -2 -31 -8 -3
-36 -43 -64 -89 -56 -91 -90 -119 -151 -120 -47 0 -93 31 -116 79 -9 18 -20
33 -25 33 -6 0 -10 6 -10 14 0 25 -50 124 -66 130 -8 3 -13 10 -10 14 3 5 -1
20 -8 33 -19 37 -26 97 -15 126 5 13 12 66 15 116 3 51 12 105 20 121 7 16 11
32 8 37 -3 5 4 9 15 9 10 0 21 -5 23 -12 2 -6 17 6 33 28 46 63 76 85 105 78
14 -4 46 -6 73 -5z m-219 -54 c-7 -16 -24 -21 -24 -6 0 8 7 13 27 20 1 1 0 -6
-3 -14z m-1007 -79 c3 10 20 -3 101 -79 18 -18 25 -20 41 -10 16 10 21 7 37
-28 11 -21 24 -39 30 -39 6 0 17 -18 24 -40 7 -22 18 -40 25 -40 32 0 43 -210
18 -340 -10 -48 -50 -113 -65 -104 -10 7 -68 -18 -68 -28 0 -5 -4 -8 -10 -8
-5 0 -6 8 -3 17 5 12 2 15 -10 10 -11 -4 -17 -1 -17 9 0 11 -4 13 -16 6 -22
-12 -64 8 -64 30 0 25 -19 33 -33 13 -8 -10 -19 -14 -30 -10 -15 6 -15 9 -2
28 8 12 15 30 15 40 0 17 -1 17 -21 -2 -12 -11 -22 -31 -23 -44 0 -14 -5 -23
-9 -20 -5 3 -6 17 -3 32 3 14 3 20 0 14 -12 -27 -40 -9 -126 79 -67 70 -88 98
-84 113 4 13 -5 33 -25 58 -30 37 -30 39 -16 75 12 31 12 44 2 79 -12 42 -12
42 16 52 35 12 47 37 30 63 -7 11 -10 22 -7 25 3 3 11 -6 17 -21 15 -32 32
-33 56 -2 15 18 23 21 42 14 30 -11 36 -5 22 20 -24 44 -5 56 31 20 l21 -21
-5 21 c-5 18 -2 22 17 22 13 0 27 -5 30 -10 4 -6 11 -8 16 -4 5 3 7 10 3 15
-3 6 4 5 16 -3 16 -9 24 -10 27 -2z m1453 -611 c0 -8 -7 -15 -15 -15 -16 0
-20 12 -8 23 11 12 23 8 23 -8z m460 -1335 c0 -5 -9 -10 -21 -10 -11 0 -17 5
-14 10 3 6 13 10 21 10 8 0 14 -4 14 -10z"/>
<path d="M426 3796 c7 -18 29 -21 39 -6 3 6 2 10 -4 10 -5 0 -17 3 -25 6 -12
5 -15 2 -10 -10z"/>
<path d="M4845 5059 c-4 -11 -4 -23 0 -27 7 -7 25 17 25 36 0 20 -18 14 -25
-9z"/>
<path d="M4010 4993 c0 -5 5 -15 10 -23 8 -12 10 -11 10 8 0 12 -4 22 -10 22
-5 0 -10 -3 -10 -7z"/>
<path d="M4067 4833 c-4 -3 -7 -13 -7 -22 1 -13 3 -13 11 2 11 19 8 33 -4 20z"/>
<path d="M3475 4721 c-19 -37 -32 -171 -17 -171 6 0 18 24 27 53 10 28 21 56
26 62 5 5 9 26 9 47 0 47 -23 51 -45 9z"/>
<path d="M4575 4721 c-3 -5 -1 -12 4 -15 5 -3 11 1 15 9 6 16 -9 21 -19 6z"/>
<path d="M4382 4514 c-16 -17 -34 -74 -24 -74 12 1 62 72 56 81 -7 13 -17 11
-32 -7z"/>
<path d="M4628 4211 c-4 -13 -2 -33 3 -43 15 -28 18 -19 10 27 -6 35 -8 37
-13 16z"/>
<path d="M4235 4170 c-3 -5 1 -10 9 -10 8 0 18 5 21 10 3 6 -1 10 -9 10 -8 0
-18 -4 -21 -10z"/>
<path d="M3807 4109 c-9 -6 -17 -14 -17 -19 0 -16 30 -11 37 5 8 21 1 25 -20
14z"/>
<path d="M4174 4069 c-20 -7 -39 -37 -30 -46 2 -2 23 -5 47 -6 38 -2 44 1 47
19 4 25 -34 45 -64 33z"/>
<path d="M3740 3993 c-24 -25 -29 -34 -15 -28 11 4 28 10 38 12 9 3 17 10 17
15 0 5 4 7 9 4 5 -3 11 0 14 8 3 8 -1 17 -9 20 -20 8 -14 11 -54 -31z"/>
<path d="M3753 3914 c-15 -16 -17 -34 -4 -34 10 0 26 39 19 45 -1 2 -9 -3 -15
-11z"/>
<path d="M3760 3860 c0 -5 5 -10 11 -10 5 0 7 5 4 10 -3 6 -8 10 -11 10 -2 0
-4 -4 -4 -10z"/>
<path d="M3726 3851 c-4 -7 -5 -15 -2 -18 9 -9 19 4 14 18 -4 11 -6 11 -12 0z"/>
<path d="M3098 3290 c-11 -38 -10 -56 3 -43 6 6 9 23 7 39 l-3 29 -7 -25z"/>
<path d="M3151 3064 c0 -11 3 -14 6 -6 3 7 2 16 -1 19 -3 4 -6 -2 -5 -13z"/>
<path d="M3887 2734 c-4 -4 -7 -14 -7 -23 0 -11 3 -12 11 -4 6 6 10 16 7 23
-2 6 -7 8 -11 4z"/>
<path d="M2891 2344 c0 -11 3 -14 6 -6 3 7 2 16 -1 19 -3 4 -6 -2 -5 -13z"/>
<path d="M431 2048 c-25 -25 -34 -30 -40 -19 -7 11 -13 9 -30 -8 -11 -11 -32
-21 -45 -21 -18 0 -25 -6 -28 -22 -2 -13 -13 -27 -25 -33 -16 -7 -21 -15 -17
-31 5 -20 1 -23 -43 -29 -26 -3 -59 -9 -73 -12 -14 -4 -29 -5 -34 -4 -4 1 -14
-3 -22 -10 -8 -6 -21 -9 -29 -5 -10 3 -15 -1 -16 -12 0 -10 -3 -12 -6 -4 -18
46 -23 -22 -23 -328 l0 -340 23 5 c12 3 42 9 67 15 97 20 305 75 310 82 39 54
112 131 146 154 23 16 47 38 52 50 6 11 27 29 49 39 39 19 78 50 147 120 35
35 37 40 21 50 -10 5 -28 21 -41 35 -14 14 -38 39 -54 56 -17 17 -30 36 -30
42 0 7 -17 23 -37 36 -63 41 -79 59 -93 104 -7 23 -19 47 -27 53 -19 17 -16
27 10 31 12 2 22 10 22 18 0 11 -14 16 -51 18 -46 3 -54 0 -83 -30z m76 -14
c-3 -3 -12 -4 -19 -1 -8 3 -5 6 6 6 11 1 17 -2 13 -5z"/>
<path d="M175 1911 c-3 -5 -1 -12 5 -16 5 -3 10 1 10 9 0 18 -6 21 -15 7z"/>
<path d="M1185 1534 c-30 -7 -54 -9 -61 -3 -11 9 -24 2 -24 -14 0 -5 7 -6 16
-3 10 4 18 0 21 -13 3 -13 10 -18 21 -13 12 4 11 -2 -6 -25 -12 -17 -22 -36
-22 -41 0 -6 -6 -13 -12 -15 -8 -3 -5 -6 5 -6 17 -1 17 -3 -3 -36 -15 -25 -22
-54 -24 -102 -2 -38 -5 -75 -7 -83 -3 -10 2 -14 14 -12 15 3 17 -1 12 -17 -4
-14 -1 -23 9 -27 12 -4 12 -11 4 -37 -13 -38 -9 -33 -35 -41 -19 -6 -23 -3
-24 16 0 13 -3 17 -6 11 -7 -18 -21 -16 -44 6 -13 12 -40 21 -72 24 -29 2 -62
7 -74 10 -11 3 -42 9 -68 13 -59 8 -69 -4 -44 -56 11 -22 20 -48 22 -60 2 -11
20 -43 41 -71 21 -27 36 -52 33 -55 -2 -3 -31 -6 -63 -7 -54 -2 -59 -4 -60
-25 -1 -26 4 -28 136 -42 136 -14 174 -19 270 -32 47 -7 88 -11 92 -10 4 1 42
-3 85 -8 43 -5 119 -12 168 -15 258 -15 423 -40 446 -66 13 -15 18 -16 22 -7
4 10 9 8 17 -4 13 -22 39 -23 46 -4 4 11 12 13 31 5 33 -12 32 -13 28 22 -3
17 -12 37 -22 45 -16 12 -16 15 -3 24 12 8 13 13 2 27 -6 10 -15 24 -19 32 -3
7 -16 24 -29 38 -13 14 -26 40 -30 59 -4 20 -13 36 -25 39 -10 4 -19 11 -19
17 0 6 -12 27 -27 47 -15 20 -28 40 -28 46 0 27 -41 55 -80 56 -22 1 -32 3
-22 6 29 8 19 31 -18 43 -30 10 -34 15 -29 35 4 18 0 26 -22 37 -15 7 -35 28
-45 47 -33 62 -97 128 -146 151 -27 12 -71 33 -100 46 -119 55 -164 65 -228
48z m145 -149 c0 -8 9 -15 19 -15 23 0 36 -16 21 -25 -6 -4 -8 -9 -6 -13 2 -4
-2 -13 -10 -19 -8 -8 -15 -9 -19 -3 -3 6 -1 10 4 10 6 0 11 7 11 16 0 13 -8
15 -50 9 -46 -6 -50 -5 -44 12 14 38 74 61 74 28z m-90 -55 c0 -5 -2 -10 -4
-10 -3 0 -8 5 -11 10 -3 6 -1 10 4 10 6 0 11 -4 11 -10z m168 -66 c-1 -19 -6
-38 -11 -41 -4 -3 -1 -15 7 -27 14 -22 16 -79 3 -92 -4 -4 -18 -2 -32 4 l-25
11 22 37 c18 31 19 38 7 48 -8 6 -14 28 -15 48 0 31 1 34 12 21 10 -15 12 -15
18 5 11 33 17 27 14 -14z m-188 -36 c0 -10 2 -10 8 -2 5 8 13 4 25 -12 18 -24
18 -24 -6 -24 -12 0 -28 5 -35 12 -15 15 -16 38 -2 38 6 0 10 -6 10 -12z m-30
-18 c0 -5 -4 -10 -10 -10 -5 0 -10 5 -10 10 0 6 5 10 10 10 6 0 10 -4 10 -10z
m-13 -296 c-3 -3 -12 -4 -19 -1 -8 3 -5 6 6 6 11 1 17 -2 13 -5z"/>
<path d="M683 1268 c-20 -31 -31 -57 -26 -62 8 -7 73 56 67 65 -8 13 -32 11
-41 -3z"/>
<path d="M3423 1259 c-24 -7 -32 -16 -35 -37 -3 -26 -5 -27 -73 -28 -120 -3
-148 -3 -154 -1 -24 6 -141 -85 -141 -111 0 -16 -25 -43 -33 -35 -4 3 -12 -6
-18 -21 -14 -30 -25 -32 -50 -10 -10 9 -33 17 -51 17 l-33 2 -1 -110 c0 -60 2
-112 5 -115 4 -3 14 -17 23 -32 13 -20 14 -28 5 -32 -9 -5 -9 -7 1 -12 17 -8
15 -21 -9 -53 -18 -24 -19 -32 -9 -51 9 -18 9 -25 -5 -40 -15 -17 -15 -20 -1
-42 9 -14 13 -28 9 -32 -5 -4 -1 -13 8 -19 9 -7 18 -23 22 -37 6 -24 4 -25
-36 -26 -23 -1 -44 2 -47 7 -8 12 -55 19 -148 24 -45 2 -89 9 -98 16 -11 9
-22 9 -52 -4 -20 -8 -59 -15 -85 -16 -42 -1 -47 2 -43 17 5 16 -2 18 -69 19
-41 0 -75 -1 -75 -3 0 -15 26 -54 36 -54 15 0 74 -33 74 -41 0 -4 46 -26 103
-48 56 -23 115 -49 130 -57 16 -7 40 -14 55 -14 14 0 51 -9 81 -19 31 -11 108
-25 171 -31 63 -7 132 -16 153 -20 21 -5 52 -4 70 0 18 5 53 11 80 15 26 3 47
10 47 15 0 4 10 10 23 14 13 3 36 17 53 31 24 20 27 28 18 42 -6 10 -21 17
-32 15 -37 -5 -33 16 8 39 42 24 51 45 23 52 -10 2 16 4 58 4 89 1 139 22 139
60 0 14 6 23 15 23 8 0 15 6 15 13 0 7 12 20 28 29 71 43 122 109 136 175 4
17 19 41 33 54 14 13 32 39 39 57 14 32 14 33 -22 65 -20 17 -40 34 -43 37
-13 10 -51 63 -51 71 0 5 7 6 15 3 17 -7 22 31 5 41 -5 3 -10 -1 -10 -11 0
-13 -3 -14 -15 -4 -8 7 -15 27 -15 44 0 17 -11 48 -25 68 -14 20 -25 42 -25
48 0 6 -11 16 -25 22 -14 6 -25 16 -25 21 0 6 -16 7 -40 3 -25 -4 -40 -2 -40
4 0 12 -4 11 -47 -1z m-176 -847 c-26 -25 -130 -57 -155 -47 -14 5 -14 7 -2
15 8 6 24 10 35 10 11 1 36 11 55 24 19 13 47 22 62 22 l27 -1 -22 -23z"/>
<path d="M738 1223 c-10 -3 -18 -9 -18 -15 0 -6 -9 -8 -19 -5 -15 3 -20 -2
-24 -22 -6 -32 8 -43 40 -28 14 6 23 19 23 33 0 13 7 24 18 26 9 2 13 6 7 9
-5 3 -18 4 -27 2z"/>
<path d="M3965 1150 c29 -12 98 -12 90 0 -3 6 -30 10 -58 9 -38 0 -47 -3 -32
-9z"/>
<path d="M2815 707 c-4 -10 -5 -21 -1 -24 10 -10 18 4 13 24 -4 17 -4 17 -12
0z"/>
<path d="M2030 644 c0 -8 5 -12 10 -9 6 4 8 11 5 16 -9 14 -15 11 -15 -7z"/>
<path d="M2193 531 c1 -12 7 -21 15 -21 16 0 12 32 -5 37 -7 3 -11 -4 -10 -16z"/>
</g>
</svg>
